<?xml version="1.0" encoding="UTF-8"?>
<svg width="446px" height="446px" viewBox="0 0 446 446" version="1.1" xmlns="http://www.w3.org/2000/svg" xmlns:xlink="http://www.w3.org/1999/xlink">
    <title>Icon-Pulseid</title>
    <g id="Page-1" stroke="none" stroke-width="1" fill="none" fill-rule="evenodd">
        <g id="play/ic_launcher_APP" transform="translate(-33.000000, -33.000000)">
            <g transform="translate(-2.000000, -2.000000)" id="Icon-Pulseid">
                <g transform="translate(35.000000, 35.000000)">
                    <circle id="Oval" fill="#FFFFFF" cx="223" cy="223" r="198.47"></circle>
                    <path d="M223,0 C344.927971,0 444.000859,97.8536089 445.970124,219.312285 L446,223 C446,344.927948 348.146391,444.000859 226.687715,445.970124 L223,446 C101.072041,446 1.99914081,348.146369 0.0298756122,226.687714 L0,223 C0,101.072029 97.8536201,1.99914058 219.312286,0.0298756088 L223,0 Z M223.514791,325.724545 C208.439302,325.732073 195.468288,336.380553 192.533884,351.158326 C189.59948,365.936111 197.518854,380.72762 211.449227,386.487319 C225.3796,392.247018 241.441233,387.370894 249.811894,374.840857 C258.18267,362.310786 256.531321,345.616408 245.867668,334.966813 C239.944834,329.035232 231.899706,325.708853 223.514791,325.724545 Z M223.514791,336.925776 C233.245178,336.921902 241.622851,343.78859 243.523179,353.325518 C245.423392,362.862481 240.316807,372.412582 231.327033,376.133786 C222.337374,379.854943 211.969254,376.710494 206.565182,368.623893 C201.16111,360.537304 202.226797,349.761645 209.110141,342.888635 C212.922521,339.058771 218.109225,336.911775 223.514791,336.925776 Z M312.829165,268.009672 C300.496116,255.676623 280.493935,255.682945 268.153069,268.023811 C255.812203,280.364677 255.805881,300.366857 268.13893,312.699907 C280.47198,325.032956 300.47416,325.026634 312.815026,312.685768 C325.155892,300.344902 325.162214,280.342722 312.829165,268.009672 Z M178.885479,268.007028 C166.55243,255.673864 146.55025,255.680301 134.209384,268.021167 C121.868518,280.362033 121.862195,300.364099 134.195245,312.697148 C146.528294,325.030312 166.530475,325.02399 178.871341,312.683124 C191.212207,300.342258 191.218529,280.340078 178.885479,268.007028 Z M89.5685194,191.862933 C74.4930297,191.87046 61.5219588,202.51894 58.5875432,217.296714 C55.6531276,232.074487 63.5725818,246.866054 77.502909,252.625776 C91.4332477,258.385498 107.49488,253.50927 115.865564,240.979314 C124.236341,228.449242 122.584991,211.754819 111.921315,201.105189 C105.998539,195.173619 97.9534458,191.847241 89.5685194,191.862933 Z M357.431,191.862 L357.028643,191.864638 C342.136856,192.032324 329.354419,202.585818 326.41044,217.218204 C323.436838,231.998276 331.330693,246.81812 345.259687,252.6052 C359.188681,258.39228 375.26813,253.532719 383.654655,241.001384 C392.041064,228.470163 390.395577,211.761945 379.725602,201.105189 C373.931855,195.302591 366.107313,191.99311 357.92034,191.866667 L357.92034,191.866667 L357.431,191.862 Z M245.858702,201.078866 C233.525652,188.745817 213.523472,188.752139 201.182606,201.093005 C188.84174,213.433871 188.835418,233.436051 201.168467,245.769101 C213.501517,258.10215 233.503697,258.095828 245.844563,245.754962 C258.185429,233.414096 258.191751,213.411916 245.858702,201.078866 Z M89.5685194,203.064188 C99.29886,203.060348 107.676591,209.927023 109.576838,219.463952 C111.477085,229.00088 106.37042,238.551027 97.3807267,242.272139 C88.3910219,245.993365 78.0229243,242.848835 72.6188641,234.762326 C67.214804,226.675703 68.2804221,215.90009 75.1638574,209.027092 C78.9762033,205.197124 84.1629304,203.050232 89.5685194,203.064188 Z M357.480547,203.064188 C367.210359,203.060348 375.587572,209.927023 377.487785,219.463952 C379.387883,229.00088 374.281528,238.551027 365.292329,242.272139 C356.303245,245.993365 345.935699,242.848835 340.531972,234.762326 C335.128245,226.675703 336.193818,215.90009 343.076816,209.027092 C346.888852,205.197124 352.075326,203.050232 357.480547,203.064188 Z M312.831809,134.150819 C300.498759,121.817769 280.496579,121.824091 268.155713,134.164957 C255.814847,146.505823 255.808525,166.508004 268.141574,178.841053 C280.474624,191.174103 300.476804,191.167781 312.81767,178.826915 C325.158536,166.486049 325.164858,146.483868 312.831809,134.150819 Z M178.888238,134.14806 C166.555189,121.81501 146.553008,121.821333 134.212142,134.162199 C121.871276,146.503065 121.864954,166.505245 134.198004,178.838294 C146.531053,191.171344 166.533234,191.165022 178.8741,178.824156 C191.214966,166.48329 191.221288,146.481109 178.888238,134.14806 Z M223.514791,57.9800553 C208.439302,57.9875826 195.468288,68.6360625 192.533884,83.4138357 C189.59948,98.1916089 197.518854,112.983176 211.449227,118.742783 C225.3796,124.502505 241.441233,119.626392 249.811894,107.096321 C258.18267,94.5663645 256.531321,77.8719408 245.867668,67.2223114 C239.944834,61.2907413 231.899706,57.964363 223.514791,57.9800553 Z M223.514791,69.1813086 C233.245178,69.1773547 241.622851,76.0441455 243.523179,85.5810738 C245.423392,95.1180022 240.316807,104.66815 231.327033,108.389261 C222.337374,112.110487 211.969254,108.965957 206.565182,100.879449 C201.16111,92.7928249 202.226797,82.017212 209.110141,75.1440991 C212.922521,71.3142465 218.109225,69.1672393 223.514791,69.1813086 Z" id="Combined-Shape" fill="#FF9800"></path>
                </g>
            </g>
        </g>
    </g>
</svg>